#!OML:ASF F:\VICON\USERDATA\INSTALL\rory3\rory3.ASF
:FULLY-SPECIFIED
:DEGREES
2311
root -0.401535 19.4164 -1.74575 -0.237836 -18.0647 -1.28941
lowerback 7.76003 -1.15705 -0.975343
upperback 0.184429 -1.61305 0.391077
thorax -4.12228 -0.777737 1.13301
lowerneck -8.87412 -4.12399 -7.37199
upperneck 7.16373 -5.34405 7.93483
head 4.00023 -2.45302 3.29636
rclavicle -9.52924e-015 5.96354e-016
rhumerus -38.6064 22.8529 -94.7189
rradius 123.609
rwrist -8.74233
rhand -30.8384 10.0349
rfingers 7.12502
rthumb -4.12705 -19.9049
lclavicle -9.52924e-015 5.96354e-016
lhumerus -43.1121 4.3028 87.1547
lradius 102.536
lwrist 23.0611
lhand -31.4978 13.8056
lfingers 7.12502
lthumb -4.7638 43.7321
rfemur -14.2645 20.884 18.2968
rtibia 42.9714
rfoot -12.8029 -4.92097
rtoes -16.9575
lfemur -8.62619 2.32252 -17.3114
ltibia 38.7058
lfoot 4.18056 -3.33581
ltoes -13.6231
2312
root -0.418796 19.4486 -1.73486 -0.0445579 -18.1771 -1.46354
lowerback 7.65184 -1.14469 -0.761622
upperback 0.0903843 -1.57609 0.409494
thorax -4.16539 -0.762697 1.0268
lowerneck -8.99463 -4.13952 -7.35408
upperneck 7.35744 -5.37812 8.00854
head 4.08329 -2.46193 3.31138
rclavicle 1.59463e-014 7.95139e-016
rhumerus -38.0562 23.5451 -94.5858
rradius 124.397
rwrist -8.64067
rhand -30.8831 9.3676
rfingers 7.12502
rthumb -4.17027 -20.5713
lclavicle 1.59463e-014 7.95139e-016
lhumerus -44.394 4.54746 87.4375
lradius 101.762
lwrist 23.096
lhand -31.5478 13.7937
lfingers 7.12502
lthumb -4.81209 43.719
rfemur -14.3137 20.68 18.5939
rtibia 42.2494
rfoot -12.1889 -3.66271
rtoes -17.1738
lfemur -8.85866 2.01557 -16.9624
ltibia 38.8134
lfoot 4.62083 -3.50624
ltoes -14.5671
2313
root -0.434102 19.468 -1.72476 0.0083926 -18.2543 -1.62871
lowerback 7.6927 -1.11819 -0.568773
upperback 0.0239539 -1.52189 0.455503
thorax -4.26232 -0.738385 0.962206
lowerneck -9.25647 -4.16256 -7.32935
upperneck 7.71546 -5.4186 8.02904
head 4.23864 -2.47207 3.30565
rclavicle -3.59987e-014 1.78906e-015
rhumerus -37.4542 24.277 -94.2387
rradius 125.084
rwrist -8.54327
rhand -30.9412 9.38808
rfingers 7.12502
rthumb -4.22638 -20.5497
lclavicle -3.59987e-014 1.78906e-015
lhumerus -45.6006 4.64159 87.8041
lradius 101.091
lwrist 22.9833
lhand -31.5808 13.5568
lfingers 7.12502
lthumb -4.84394 43.4814
rfemur -14.2002 20.5006 18.9322
rtibia 41.565
rfoot -11.6938 -2.58359
rtoes -17.0723
lfemur -8.98339 1.8426 -16.6405
ltibia 39.1003
lfoot 4.68005 -3.77659
ltoes -15.8825
2314
root -0.451445 19.4799 -1.70664 0.250518 -18.4395 -1.71308
lowerback 7.26447 -1.06763 -0.384798
upperback 0.0377885 -1.43936 0.406346
thorax -4.01475 -0.703234 0.788915
lowerneck -9.71186 -4.18769 -7.10192
upperneck 8.0981 -5.46855 7.94336
head 4.42621 -2.48158 3.23006
rclavicle 2.62644e-014 -3.37934e-015
rhumerus -36.5839 25.1353 -93.8557
rradius 125.644
rwrist -8.35744
rhand -31.2529 9.0002
rfingers 7.12502
rthumb -4.52736 -20.9314
lclavicle 2.62644e-014 -3.37934e-015
lhumerus -46.6405 4.59622 88.0379
lradius 100.595
lwrist 22.8143
lhand -31.4294 13.5645
lfingers 7.12502
lthumb -4.69775 43.4924
rfemur -14.3054 20.3932 19.0772
rtibia 40.9335
rfoot -11.2891 -1.57478
rtoes -16.8321
lfemur -9.35799 1.79987 -16.416
ltibia 39.5981
lfoot 4.29393 -3.75125
ltoes -16.2581
2315
root -0.469946 19.4751 -1.6959 0.288751 -18.5218 -1.7201
lowerback 6.90999 -1.04824 -0.18304
upperback 0.20448 -1.40375 0.228411
thorax -3.65284 -0.692839 0.478148
lowerneck -9.83838 -4.25033 -6.73943
upperneck 7.93898 -5.57589 7.83405
head 4.39375 -2.52755 3.12717
rclavicle -1.24613e-014 -5.1684e-015
rhumerus -35.4629 25.7388 -93.5306
rradius 126.103
rwrist -8.25548
rhand -31.502 8.84148
rfingers 7.12502
rthumb -4.76786 -21.0849
lclavicle -1.24613e-014 -5.1684e-015
lhumerus -47.5206 4.43219 88.1253
lradius 100.281
lwrist 22.563
lhand -31.0817 14.0958
lfingers 7.12502
lthumb -4.362 44.0309
rfemur -14.1969 20.1813 19.2455
rtibia 40.3424
rfoot -10.7829 -0.919569
rtoes -17.2412
lfemur -9.64491 1.7324 -16.2482
ltibia 40.322
lfoot 3.41009 -3.28846
ltoes -15.9605
2316
root -0.487486 19.4549 -1.69976 0.195677 -18.4137 -1.77858
lowerback 6.79673 -1.07697 0.0758628
upperback 0.490675 -1.4296 0.0284445
thorax -3.30458 -0.7125 0.123011
lowerneck -10.1313 -4.34511 -6.42879
upperneck 7.6619 -5.72031 7.87314
head 4.36116 -2.58304 3.07372
rclavicle -1.46604e-015 -3.97569e-016
rhumerus -34.2004 26.0199 -93.1429
rradius 126.571
rwrist -8.17324
rhand -31.4718 9.31602
rfingers 7.12502
rthumb -4.73872 -20.611
lclavicle -1.46604e-015 -3.97569e-016
lhumerus -48.1258 4.10144 88.1721
lradius 100.099
lwrist 22.1962
lhand -30.7829 14.2828
lfingers 7.12502
lthumb -4.0735 44.2236
rfemur -13.9759 19.8411 19.5398
rtibia 39.796
rfoot -10.1331 -0.650864
rtoes -17.3546
lfemur -9.92616 1.69236 -16.0186
ltibia 41.2805
lfoot 2.00294 -2.35658
ltoes -16.9243
2317
root -0.504358 19.4296 -1.69861 0.330126 -18.4164 -1.94972
lowerback 6.98745 -1.01677 0.172343
upperback 0.358222 -1.33872 0.100679
thorax -3.54892 -0.667856 0.140115
lowerneck -10.426 -4.41598 -6.44101
upperneck 7.88394 -5.81114 7.8686
head 4.48474 -2.61946 3.06136
rclavicle 2.9122e-014 5.56597e-015
rhumerus -33.6911 26.2948 -92.5855
rradius 127.208
rwrist -8.12732
rhand -31.2785 9.60471
rfingers 7.12502
rthumb -4.5521 -20.3264
lclavicle 2.9122e-014 5.56597e-015
lhumerus -49.2514 3.75479 88.6137
lradius 100.137
lwrist 21.7787
lhand -30.7102 14.1078
lfingers 7.12502
lthumb -4.00326 44.0499
rfemur -13.9916 19.5836 19.8509
rtibia 39.2721
rfoot -9.46274 -0.602722
rtoes -16.8823
lfemur -10.4462 1.99252 -15.685
ltibia 42.4683
lfoot 0.300464 -0.935784
ltoes -18.6454
